<?xml version='1.0' encoding='utf-8'?>
<svg xmlns="http://www.w3.org/2000/svg" width="161" height="101" viewBox="0 0 161 101" fill="none">
<path d="M12.3021 93.3131C12.3021 94.4868 11.8489 95.4222 10.9425 96.1195C10.0361 96.8167 8.83919 97.1653 7.35178 97.1653C5.88762 97.1653 4.64424 96.8225 3.62165 96.1369C2.59906 95.4397 2.00642 94.5333 1.84373 93.4177L4.3363 92.3022C4.38278 93.0691 4.68491 93.6908 5.24269 94.1672C5.81209 94.632 6.52674 94.8645 7.38664 94.8645C8.049 94.8645 8.57773 94.7308 8.97282 94.4636C9.36792 94.1963 9.56546 93.8593 9.56546 93.4526C9.56546 93.2202 9.50736 93.0168 9.39116 92.8425C9.27495 92.6566 9.04254 92.4765 8.69393 92.3022C8.34532 92.1279 8.08387 92.0058 7.90956 91.9361C7.73525 91.8664 7.3634 91.7386 6.79401 91.5527C6.66618 91.5062 6.56741 91.4713 6.49769 91.4481C6.02125 91.2854 5.62035 91.1459 5.29498 91.0297C4.98123 90.9019 4.621 90.7276 4.21429 90.5068C3.8192 90.2744 3.49964 90.0362 3.25561 89.7922C3.01158 89.5365 2.80241 89.2228 2.62811 88.8509C2.46542 88.4675 2.38408 88.0433 2.38408 87.5785C2.38408 86.4513 2.80822 85.574 3.65651 84.9465C4.51642 84.3074 5.6494 83.9878 7.05546 83.9878C8.24074 83.9878 9.29238 84.2376 10.2104 84.7373C11.14 85.2254 11.7966 85.9691 12.18 86.9684L9.82692 88.1537C9.68747 87.5262 9.3621 87.0498 8.85081 86.7244C8.33951 86.3874 7.73526 86.2189 7.03803 86.2189C6.45702 86.2189 5.98058 86.3351 5.60873 86.5675C5.23688 86.7883 5.05095 87.0788 5.05095 87.439C5.05095 87.7063 5.18459 87.9503 5.45185 88.1711C5.73074 88.3919 6.00963 88.5604 6.28852 88.6766C6.57903 88.7812 7.03803 88.9381 7.66553 89.1472C7.70039 89.1589 7.72944 89.1705 7.75269 89.1821C7.77593 89.1821 7.80498 89.1879 7.83984 89.1995C7.8747 89.2112 7.90375 89.2228 7.92699 89.2344C8.42667 89.3971 8.83919 89.5423 9.16456 89.6702C9.50155 89.7864 9.88502 89.9665 10.315 90.2105C10.7565 90.4429 11.1052 90.6927 11.3608 90.96C11.6165 91.2273 11.8372 91.5643 12.0232 91.971C12.2091 92.3777 12.3021 92.8251 12.3021 93.3131Z" fill="#039EA0"/>
<path d="M16.1266 101H13.756V86.9684H16.1266V88.5895C16.51 88.0084 16.9981 87.5611 17.5907 87.2473C18.195 86.9219 18.8341 86.7593 19.5081 86.7593C20.6934 86.7593 21.6927 87.2415 22.5061 88.206C23.3196 89.1589 23.7263 90.4022 23.7263 91.9361C23.7263 93.4933 23.3021 94.7541 22.4538 95.7186C21.6172 96.683 20.5713 97.1653 19.3163 97.1653C18.6656 97.1653 18.0555 97.0317 17.4861 96.7644C16.9167 96.4971 16.4635 96.1195 16.1266 95.6314V101ZM16.8412 89.7399C16.3648 90.3093 16.1266 91.053 16.1266 91.971C16.1266 92.889 16.3648 93.6327 16.8412 94.2021C17.3293 94.7715 17.951 95.0562 18.7063 95.0562C19.4732 95.0562 20.0949 94.7715 20.5713 94.2021C21.0478 93.6211 21.286 92.8716 21.286 91.9536C21.286 91.0355 21.0478 90.2918 20.5713 89.7224C20.1065 89.1531 19.4907 88.8684 18.7237 88.8684C17.9568 88.8684 17.3293 89.1589 16.8412 89.7399Z" fill="#039EA0"/>
<path d="M34.2396 94.2544C33.8561 95.1956 33.2809 95.9161 32.514 96.4158C31.747 96.9154 30.8407 97.1653 29.7948 97.1653C28.2842 97.1653 27.064 96.6889 26.1344 95.736C25.2048 94.7715 24.74 93.5165 24.74 91.971C24.74 90.4022 25.1932 89.1414 26.0995 88.1886C27.0059 87.2357 28.2144 86.7593 29.7251 86.7593C31.3287 86.7593 32.5605 87.2938 33.4204 88.3629C34.2919 89.4319 34.6521 90.8612 34.5011 92.6508H27.2325C27.2558 93.3596 27.5056 93.9464 27.982 94.4113C28.4701 94.8645 29.086 95.0911 29.8297 95.0911C31.0498 95.0911 31.8226 94.4984 32.1479 93.3131L34.2396 94.2544ZM29.7077 88.7986C29.0685 88.7986 28.534 88.9729 28.1041 89.3215C27.6741 89.6702 27.4126 90.135 27.3197 90.716H32.0434C31.962 90.135 31.7064 89.6702 31.2764 89.3215C30.8581 88.9729 30.3352 88.7986 29.7077 88.7986Z" fill="#039EA0"/>
<path d="M45.066 94.0104C44.6942 95.033 44.1248 95.8173 43.3578 96.3635C42.5909 96.898 41.6612 97.1653 40.5689 97.1653C39.0815 97.1653 37.873 96.6889 36.9434 95.736C36.0138 94.7715 35.5489 93.5107 35.5489 91.9536C35.5489 90.4197 36.0079 89.1705 36.9259 88.206C37.8556 87.2415 39.0583 86.7593 40.5341 86.7593C41.638 86.7593 42.5851 87.0381 43.3752 87.5959C44.1654 88.1421 44.7348 88.9148 45.0834 89.9142L42.8698 90.8206C42.6025 89.5191 41.8414 88.8684 40.5864 88.8684C39.7962 88.8684 39.1629 89.1472 38.6864 89.705C38.21 90.2628 37.9718 91.0123 37.9718 91.9536C37.9718 92.8948 38.21 93.6501 38.6864 94.2195C39.1629 94.7773 39.802 95.0562 40.6038 95.0562C41.8472 95.0562 42.6025 94.4055 42.8698 93.104L45.066 94.0104Z" fill="#039EA0"/>
<path d="M49.0135 85.8529H46.6255V83.552H49.0135V85.8529ZM48.9961 96.9561H46.6255V86.9684H48.9961V96.9561Z" fill="#039EA0"/>
<path d="M59.4179 94.8645C59.4179 95.6314 59.4934 96.3286 59.6445 96.9561H57.2913C57.2216 96.6889 57.1693 96.2531 57.1345 95.6488C56.3094 96.6598 55.2404 97.1653 53.9273 97.1653C52.9163 97.1653 52.097 96.898 51.4696 96.3635C50.8421 95.8173 50.5283 95.0911 50.5283 94.1847C50.5283 92.3603 51.9169 91.2331 54.6942 90.8031L57.1345 90.4197V90.2628C57.1345 89.8096 56.966 89.4668 56.629 89.2344C56.3036 88.9904 55.8446 88.8684 55.252 88.8684C53.904 88.8684 53.0906 89.4552 52.8117 90.6288L50.8769 89.2344C51.6787 87.5843 53.1661 86.7593 55.3391 86.7593C56.6522 86.7593 57.6574 87.0556 58.3546 87.6482C59.0634 88.2409 59.4179 89.0833 59.4179 90.1756V94.8645ZM52.9337 94.0801C52.9337 94.4171 53.0674 94.6843 53.3346 94.8819C53.6019 95.0678 53.9621 95.1608 54.4153 95.1608C55.1474 95.1608 55.7807 94.9284 56.3152 94.4636C56.8614 93.9987 57.1345 93.3364 57.1345 92.4765V92.3545L55.4263 92.6333C54.5083 92.7844 53.8633 92.9703 53.4915 93.1911C53.1196 93.4003 52.9337 93.6966 52.9337 94.0801Z" fill="#039EA0"/>
<path d="M63.9924 96.9561H61.6219V84.0227H63.9924V96.9561Z" fill="#039EA0"/>
<path d="M81.5041 93.5223C81.0858 94.6495 80.3595 95.5384 79.3253 96.1892C78.3027 96.8399 77.1349 97.1653 75.8218 97.1653C73.9741 97.1653 72.4577 96.5494 71.2724 95.3177C70.0987 94.0859 69.5119 92.5171 69.5119 90.6114C69.5119 88.694 70.1104 87.1195 71.3073 85.8877C72.5158 84.6444 74.0497 84.0227 75.9089 84.0227C77.2104 84.0227 78.355 84.348 79.3427 84.9988C80.3421 85.6379 81.0626 86.5269 81.5041 87.6656L79.2033 88.9729C79.0174 88.1479 78.6339 87.5088 78.0529 87.0556C77.4719 86.5908 76.7514 86.3584 75.8915 86.3584C74.7411 86.3584 73.8289 86.7418 73.1549 87.5088C72.4925 88.2757 72.1614 89.3041 72.1614 90.594C72.1614 91.8838 72.4984 92.9122 73.1723 93.6792C73.8463 94.4345 74.7585 94.8122 75.9089 94.8122C76.7805 94.8122 77.5009 94.5856 78.0703 94.1324C78.6397 93.6792 79.0174 93.0401 79.2033 92.215L81.5041 93.5223Z" fill="#039EA0"/>
<path d="M91.5724 94.8645C91.5724 95.6314 91.648 96.3286 91.799 96.9561H89.4459C89.3762 96.6889 89.3239 96.2531 89.289 95.6488C88.464 96.6598 87.3949 97.1653 86.0818 97.1653C85.0709 97.1653 84.2516 96.898 83.6241 96.3635C82.9966 95.8173 82.6829 95.0911 82.6829 94.1847C82.6829 92.3603 84.0715 91.2331 86.8488 90.8031L89.289 90.4197V90.2628C89.289 89.8096 89.1205 89.4668 88.7836 89.2344C88.4582 88.9904 87.9992 88.8684 87.4065 88.8684C86.0586 88.8684 85.2452 89.4552 84.9663 90.6288L83.0315 89.2344C83.8333 87.5843 85.3207 86.7593 87.4937 86.7593C88.8068 86.7593 89.812 87.0556 90.5092 87.6482C91.218 88.2409 91.5724 89.0833 91.5724 90.1756V94.8645ZM85.0883 94.0801C85.0883 94.4171 85.2219 94.6843 85.4892 94.8819C85.7564 95.0678 86.1167 95.1608 86.5699 95.1608C87.302 95.1608 87.9353 94.9284 88.4698 94.4636C89.016 93.9987 89.289 93.3364 89.289 92.4765V92.3545L87.5808 92.6333C86.6628 92.7844 86.0179 92.9703 85.6461 93.1911C85.2742 93.4003 85.0883 93.6966 85.0883 94.0801Z" fill="#039EA0"/>
<path d="M93.7764 96.9561V86.9684H96.147V88.45C96.484 87.9155 96.8907 87.503 97.3671 87.2125C97.8436 86.9103 98.3549 86.7593 98.901 86.7593C99.3542 86.7593 99.7667 86.8522 100.139 87.0381C100.51 87.2125 100.789 87.4332 100.975 87.7005L99.912 89.7224C99.6331 89.2576 99.1625 89.0252 98.5001 89.0252C97.8145 89.0252 97.2509 89.3506 96.8094 90.0013C96.3678 90.6405 96.147 91.6456 96.147 93.0168V96.9561H93.7764Z" fill="#039EA0"/>
<path d="M110.702 94.2544C110.319 95.1956 109.744 95.9161 108.977 96.4158C108.21 96.9154 107.303 97.1653 106.258 97.1653C104.747 97.1653 103.527 96.6889 102.597 95.736C101.668 94.7715 101.203 93.5165 101.203 91.971C101.203 90.4022 101.656 89.1414 102.562 88.1886C103.469 87.2357 104.677 86.7593 106.188 86.7593C107.792 86.7593 109.023 87.2938 109.883 88.3629C110.755 89.4319 111.115 90.8612 110.964 92.6508H103.695C103.719 93.3596 103.968 93.9464 104.445 94.4113C104.933 94.8645 105.549 95.0911 106.293 95.0911C107.513 95.0911 108.285 94.4984 108.611 93.3131L110.702 94.2544ZM106.171 88.7986C105.531 88.7986 104.997 88.9729 104.567 89.3215C104.137 89.6702 103.875 90.135 103.783 90.716H108.506C108.425 90.135 108.169 89.6702 107.739 89.3215C107.321 88.9729 106.798 88.7986 106.171 88.7986Z" fill="#039EA0"/>
<path d="M112.535 96.9561V86.9684H114.905V88.45C115.242 87.9155 115.649 87.503 116.125 87.2125C116.602 86.9103 117.113 86.7593 117.659 86.7593C118.112 86.7593 118.525 86.8522 118.897 87.0381C119.269 87.2125 119.548 87.4332 119.734 87.7005L118.67 89.7224C118.391 89.2576 117.921 89.0252 117.258 89.0252C116.573 89.0252 116.009 89.3506 115.568 90.0013C115.126 90.6405 114.905 91.6456 114.905 93.0168V96.9561H112.535Z" fill="#039EA0"/>
<path d="M126.38 96.9561H123.592L128.507 84.3713H131.348L136.211 96.9561H133.405L132.376 94.0975H127.409L126.38 96.9561ZM128.35 91.5178L128.193 91.971H131.592L131.435 91.5178C130.506 89.0543 130.006 87.6192 129.936 87.2125H129.884C129.849 87.4332 129.338 88.8684 128.35 91.5178Z" fill="#039EA0"/>
<path d="M139.587 101H137.217V86.9684H139.587V88.5895C139.971 88.0084 140.459 87.5611 141.051 87.2473C141.656 86.9219 142.295 86.7593 142.969 86.7593C144.154 86.7593 145.153 87.2415 145.967 88.206C146.78 89.1589 147.187 90.4022 147.187 91.9361C147.187 93.4933 146.763 94.7541 145.914 95.7186C145.078 96.683 144.032 97.1653 142.777 97.1653C142.126 97.1653 141.516 97.0317 140.947 96.7644C140.377 96.4971 139.924 96.1195 139.587 95.6314V101ZM140.302 89.7399C139.825 90.3093 139.587 91.053 139.587 91.971C139.587 92.889 139.825 93.6327 140.302 94.2021C140.79 94.7715 141.412 95.0562 142.167 95.0562C142.934 95.0562 143.555 94.7715 144.032 94.2021C144.508 93.6211 144.747 92.8716 144.747 91.9536C144.747 91.0355 144.508 90.2918 144.032 89.7224C143.567 89.1531 142.951 88.8684 142.184 88.8684C141.417 88.8684 140.79 89.1589 140.302 89.7399Z" fill="#039EA0"/>
<path d="M151.094 101H148.723V86.9684H151.094V88.5895C151.477 88.0084 151.966 87.5611 152.558 87.2473C153.162 86.9219 153.802 86.7593 154.476 86.7593C155.661 86.7593 156.66 87.2415 157.474 88.206C158.287 89.1589 158.694 90.4022 158.694 91.9361C158.694 93.4933 158.27 94.7541 157.421 95.7186C156.585 96.683 155.539 97.1653 154.284 97.1653C153.633 97.1653 153.023 97.0317 152.454 96.7644C151.884 96.4971 151.431 96.1195 151.094 95.6314V101ZM151.809 89.7399C151.332 90.3093 151.094 91.053 151.094 91.971C151.094 92.889 151.332 93.6327 151.809 94.2021C152.297 94.7715 152.918 95.0562 153.674 95.0562C154.441 95.0562 155.062 94.7715 155.539 94.2021C156.015 93.6211 156.253 92.8716 156.253 91.9536C156.253 91.0355 156.015 90.2918 155.539 89.7224C155.074 89.1531 154.458 88.8684 153.691 88.8684C152.924 88.8684 152.297 89.1589 151.809 89.7399Z" fill="#039EA0"/>
<path d="M44.6227 66.5641C50.1119 62.2817 53.0352 51.5727 53.6328 47.677C54.2303 43.7753 55.7125 38.7606 57.3176 36.0307C58.9228 33.3066 62.4319 28.0048 60.8736 25.4565C60.8736 25.4565 61.1372 23.8044 60.0417 23.0077C58.9462 22.211 57.3645 23.7986 57.054 24.3024C57.054 24.3024 56.4682 24.2321 55.4078 25.8021C54.3475 27.3721 52.1565 30.8578 51.5003 31.842C50.8442 32.8262 50.2935 34.7243 49.8659 35.5386C49.4441 36.3529 48.7938 39.0946 45.6245 41.6664C45.6245 41.6664 48.1846 38.8544 49.198 35.234C50.2115 31.6135 51.7874 30.1255 52.3381 29.3464C52.8888 28.5672 54.9919 25.4447 55.5777 24.73C56.1577 24.0153 56.9134 23.8513 56.9134 23.8513C56.9134 23.8513 57.798 22.6269 59.0048 22.3633C60.2116 22.0997 61.7348 23.2127 61.272 25.3276C61.272 25.3276 62.8772 27.1729 61.0435 30.5063C59.2099 33.8397 56.7377 38.2275 55.8706 40.4947C55.0095 42.756 54.7107 44.0097 54.7107 44.0097C54.7107 44.0097 57.3176 42.4982 58.501 41.8011C59.6902 41.104 62.8654 39.364 64.3652 38.1338C65.8649 36.9036 69.7197 34.2322 69.6142 32.1642C69.6142 32.1642 63.7032 35.3687 62.4319 36.0893C61.1665 36.804 58.8174 38.2803 57.757 38.7489C57.757 38.7489 59.5438 37.3781 60.6451 36.6341C61.7465 35.8901 68.2375 32.4747 69.9598 31.5608C71.688 30.6411 78.6535 27.4131 76.5914 23.74C76.5914 23.74 72.6664 26.1595 70.1883 27.3604C67.7103 28.5614 65.1912 29.7096 64.6874 30.0025C64.1777 30.2954 61.3774 32.0412 60.5045 32.5509C60.5045 32.5509 62.7834 30.8637 63.4688 30.4184C64.1543 29.9673 71.6705 25.8958 72.9241 25.2221C74.1837 24.5484 77.8217 23.0136 78.7238 21.3732C79.6319 19.7329 79.4151 17.7294 78.1732 17.1728C76.9254 16.6104 71.8169 20.6937 68.7823 22.0352C65.7419 23.3768 63.6915 23.6345 62.76 24.2555C61.8285 24.8823 61.5649 25.1343 61.5649 25.1343C61.5649 25.1343 62.6253 24.0622 63.1408 23.5877C63.6563 23.1131 68.7472 18.2918 69.9247 16.5929C71.1022 14.894 70.9557 12.1991 69.8251 11.1505C68.6944 10.1019 66.5034 13.5114 65.4255 14.6479C64.3476 15.7844 57.757 20.5589 55.6597 22.3984C53.5625 24.2379 49.0692 28.8894 47.3058 30.0552C45.5425 31.221 44.2478 31.6252 43.0175 34.2673C41.7873 36.9094 38.5652 45.5973 37.458 51.0338C34.4234 65.9021 28.8522 71.5202 28.858 71.5202C32.455 70.8993 39.1218 70.8524 44.611 66.57L44.6227 66.5641Z" fill="#039EA0"/>
<path d="M81.7934 21.3736C82.7014 23.0139 86.3394 24.5488 87.5931 25.2225C88.8526 25.8962 96.363 29.9677 97.0484 30.4188C97.7338 30.8699 100.013 32.5512 100.013 32.5512C99.1398 32.0415 96.3337 30.2899 95.8299 30.0028C95.3202 29.7099 92.8011 28.5617 90.3289 27.3607C87.8509 26.1598 83.9258 23.7403 83.9258 23.7403C81.8637 27.4135 88.8351 30.6472 90.5574 31.5611C92.2856 32.4809 98.7707 35.8963 99.8721 36.6344C100.973 37.3784 102.76 38.7493 102.76 38.7493C101.7 38.2806 99.3507 36.8043 98.0853 36.0896C96.8199 35.3749 90.903 32.1645 90.903 32.1645C90.7976 34.2325 94.6582 36.9098 96.1521 38.1341C97.6518 39.3644 100.827 41.1043 102.016 41.8014C103.205 42.4986 105.807 44.01 105.807 44.01C105.807 44.01 105.508 42.7563 104.647 40.495C103.785 38.2337 101.307 33.84 99.4737 30.5066C97.6401 27.1733 99.2453 25.3279 99.2453 25.3279C98.7883 23.2131 100.311 22.1 101.512 22.3636C102.719 22.6272 103.604 23.8516 103.604 23.8516C103.604 23.8516 104.354 24.0215 104.94 24.7304C105.519 25.4451 107.628 28.5617 108.179 29.3467C108.73 30.1259 110.306 31.6139 111.319 35.2343C112.339 38.8547 114.893 41.6667 114.893 41.6667C111.723 39.0891 111.073 36.3532 110.651 35.5389C110.23 34.7246 109.679 32.8265 109.017 31.8423C108.361 30.8581 106.17 27.3725 105.109 25.8024C104.049 24.2324 103.463 24.3027 103.463 24.3027C103.153 23.7989 101.571 22.2113 100.475 23.008C99.38 23.8048 99.6436 25.4568 99.6436 25.4568C98.0853 28.0052 101.6 33.3011 103.2 36.031C104.805 38.7551 106.287 43.7757 106.884 47.6773C107.482 51.5789 110.405 62.282 115.895 66.5645C121.384 70.8469 128.05 70.8937 131.647 71.5147C131.647 71.5147 126.082 65.8966 123.048 51.0283C121.934 45.5918 118.718 36.9098 117.488 34.2618C116.258 31.6197 114.963 31.2155 113.2 30.0497C111.436 28.8839 106.943 24.2383 104.846 22.3929C102.749 20.5534 96.1579 15.7789 95.08 14.6424C94.0021 13.5059 91.8111 10.0964 90.6804 11.145C89.5498 12.1936 89.4033 14.8826 90.5808 16.5873C91.7584 18.2862 96.8492 23.1135 97.3647 23.5821C97.8803 24.0567 98.9406 25.1287 98.9406 25.1287C98.9406 25.1287 98.677 24.8768 97.7455 24.25C96.8141 23.6232 94.7637 23.3712 91.7232 22.0297C88.6827 20.6881 83.5743 16.6049 82.3324 17.1673C81.0845 17.7297 80.8736 19.7274 81.7817 21.3677L81.7934 21.3736Z" fill="#039EA0"/>
<path d="M80.2704 73.9048C110.136 73.9048 137.611 76.4121 159.498 80.6184C159.844 80.6711 160.195 80.718 160.541 80.7707C140.16 74.8362 111.735 71.1455 80.2704 71.1455C48.8055 71.1455 20.381 74.8362 0 80.7707C0.345639 80.718 0.697137 80.6711 1.04278 80.6184C22.9294 76.418 50.4048 73.9048 80.2704 73.9048Z" fill="#039EA0"/>
<path d="M79.7665 37.642H75.6013V41.8073H79.7665V37.642Z" fill="#039EA0"/>
<path d="M84.9394 37.642H80.7742V41.8073H84.9394V37.642Z" fill="#039EA0"/>
<path d="M79.7666 32.4106H75.6013V36.5758H79.7666V32.4106Z" fill="#039EA0"/>
<path d="M84.9394 32.4106H80.7742V36.5759H84.9394V32.4106Z" fill="#039EA0"/>
<path d="M85.7068 0.107883C82.5141 -0.436938 80.6628 1.24439 80.2703 1.64276C79.8778 1.23853 78.0266 -0.436938 74.8338 0.107883C71.2193 0.723004 69.9363 4.15596 72.098 8.34464C73.8496 11.7483 78.343 14.2147 79.9716 15.029C80.0887 15.0875 80.1883 15.1344 80.2703 15.1754C80.3524 15.1344 80.4519 15.0875 80.5691 15.029C82.1977 14.2205 86.6852 11.7483 88.4427 8.34464C90.6044 4.15596 89.3273 0.723004 85.7068 0.107883ZM84.0607 8.36222C84.0607 8.59655 83.8673 8.78988 83.633 8.78988H81.8931C81.6588 8.78988 81.4654 8.9832 81.4654 9.21753V10.9574C81.4654 11.1918 81.2721 11.3851 81.0378 11.3851H79.497C79.2627 11.3851 79.0694 11.1918 79.0694 10.9574V9.21753C79.0694 8.9832 78.8761 8.78988 78.6417 8.78988H76.9018C76.6675 8.78988 76.4742 8.59655 76.4742 8.36222V6.82149C76.4742 6.58716 76.6675 6.39383 76.9018 6.39383H78.6417C78.8761 6.39383 79.0694 6.20051 79.0694 5.96618V4.22626C79.0694 3.99193 79.2627 3.79861 79.497 3.79861H81.0378C81.2721 3.79861 81.4654 3.99193 81.4654 4.22626V5.96618C81.4654 6.20051 81.6588 6.39383 81.8931 6.39383H83.633C83.8673 6.39383 84.0607 6.58716 84.0607 6.82149V8.36222Z" fill="#039EA0"/>
<path d="M88.0619 63.518C87.4702 62.692 85.8299 61.3621 84.0958 62.1999C84.0958 62.1999 84.6055 61.8484 84.998 61.7371C84.998 61.7371 85.0156 61.286 84.7988 61.0575C84.7988 61.0575 84.9628 61.2098 84.9804 61.2919C84.9804 61.2919 85.1737 59.5988 85.3964 59.0598C85.619 58.5209 85.7244 57.8589 85.7947 57.6538C85.865 57.4488 85.9177 57.3375 85.8416 57.3199C85.7654 57.3023 86.1755 56.7927 86.5797 56.9626C86.5797 56.9626 86.5036 56.9919 86.527 57.027C86.5504 57.0622 86.6559 57.0739 86.7145 57.068C86.773 57.0622 86.7848 57.0797 86.7965 57.0973C86.8082 57.1149 86.9195 57.232 87.0074 57.1969C87.0953 57.1617 87.1011 57.191 87.1304 57.2262C87.1597 57.2613 87.2066 57.3258 87.3472 57.2906C87.4819 57.2555 87.5698 57.2906 87.6049 57.3199C87.6401 57.3434 87.8861 57.5601 87.974 57.4547C88.0619 57.3492 88.1263 57.1618 88.0326 57.0797C87.9389 56.9977 87.3706 56.8161 87.271 56.781C87.1773 56.7458 86.9547 56.7458 86.9019 56.7048C86.8492 56.6638 86.7438 56.5818 86.6735 56.6228C86.6735 56.6228 86.029 56.5056 85.7303 56.8923C85.7303 56.8923 85.7889 57.2496 85.6658 57.3902C85.5428 57.5308 85.4784 57.5308 85.4725 57.5835C85.4666 57.6363 85.3905 58.4271 85.2147 58.6615C85.039 58.8958 85.3378 58.2162 85.3495 58.0405C85.3612 57.8647 85.3553 57.5835 85.4549 57.4781C85.5545 57.3726 85.7303 57.0212 85.6658 56.8161C85.6014 56.6111 85.4901 56.3006 85.4022 56.1073C85.3143 55.9139 84.377 54.7247 84.1778 54.5841C83.9786 54.4435 83.8615 54.2795 83.8029 54.174C83.7443 54.0686 83.715 54.01 83.6564 54.0041C83.5979 53.9983 83.5803 53.8225 83.551 53.6878C83.5217 53.553 83.8263 53.3714 83.7619 52.8852C83.6974 52.399 83.4514 51.321 82.807 51.1453C82.1684 50.9695 80.7566 50.9109 80.7859 51.819C80.7859 51.819 80.534 52.8676 80.5164 53.0609C80.4988 53.2543 80.6277 53.266 80.5691 53.3656C80.5105 53.4652 80.4109 53.8577 80.3758 53.9573C80.3406 54.0569 80.3875 54.1623 80.5222 54.1799C80.657 54.1975 80.7039 54.1623 80.7449 54.2502C80.7859 54.3381 80.8503 54.3966 80.9148 54.3966C80.9792 54.3966 81.0378 54.5021 81.0378 54.6075C81.0378 54.713 81.0964 54.7306 81.1139 54.8126C81.1315 54.8946 81.0788 55.1934 81.3541 55.1934C81.3541 55.1934 81.1374 55.2695 81.0202 55.0528C81.0202 55.0528 80.6394 55.498 80.4285 55.8495C80.2176 56.201 79.8193 56.6286 79.7079 56.8337C79.5966 57.0387 79.4443 57.4547 79.3623 57.6304C79.2803 57.8062 79.1455 57.812 79.0928 57.8999C79.0401 57.9878 78.9581 58.1401 78.9346 58.1635C78.9112 58.187 78.2668 58.3276 77.9153 58.3861C77.5638 58.4447 77.0424 58.4623 76.9956 58.4447C76.9487 58.4271 76.8725 58.1811 76.8081 58.1108C76.7436 58.0405 76.5152 58.0639 76.439 58.0698C76.3629 58.0756 76.2633 58.0815 76.1988 58.0815C76.1344 58.0815 76.0641 58.1049 75.9645 58.0932C75.8649 58.0815 75.777 57.9761 75.7126 58.0756C75.6481 58.1752 75.5544 58.2807 75.5017 58.2807C75.449 58.2807 75.1443 58.3803 75.1736 58.4799C75.2029 58.5795 75.3669 58.556 75.4255 58.5619C75.4841 58.5677 75.5603 58.6556 75.6013 58.7083C75.6423 58.7611 75.7184 58.8021 75.7009 58.8372C75.6833 58.8724 75.6247 58.9134 75.6013 58.8724C75.5778 58.8314 75.1033 58.515 74.6522 58.2455C74.2011 57.9761 73.4571 58.0991 73.1759 58.6791C72.8948 59.259 72.5667 60.665 72.5667 60.665L72.9709 58.5092C72.9709 58.5092 72.8069 58.3861 72.6311 58.2924C72.4554 58.1987 72.0101 58.0112 71.8988 57.9643C71.7875 57.9175 71.6469 57.8999 71.7582 57.8647C71.8695 57.8237 71.9808 57.8589 72.0336 57.8062C72.0922 57.7534 72.1039 57.648 72.098 57.5484C72.098 57.4488 72.0863 57.3844 72.1215 57.3316C72.1566 57.2789 72.2269 57.0914 72.2796 57.027C72.3323 56.9626 72.3851 56.8806 72.3734 56.781C72.3558 56.6814 72.2328 56.4763 72.2679 56.3064C72.3031 56.1365 72.3148 56.0487 72.2796 55.9139C72.2445 55.7792 72.2972 55.5039 72.2796 55.4277C72.262 55.3515 72.2445 54.9708 71.8168 54.8067C71.3892 54.6427 70.6979 54.5255 70.0066 54.8887C69.3153 55.2519 69.4384 56.4295 69.2743 56.863C69.1103 57.2965 68.9345 58.0874 68.6006 58.351C68.2725 58.6146 67.4114 59.7453 67.3997 60.8349C67.388 61.9245 67.2005 62.4166 67.1829 62.5455C67.1653 62.6744 67.2591 63.1372 67.3059 63.2485C67.3528 63.3598 67.4582 63.5297 67.47 63.5883C67.4817 63.6469 67.511 63.8871 67.7043 63.9046C67.7043 63.9046 67.552 63.9281 67.5286 63.9281C67.5051 63.9281 67.4582 64.2737 67.4875 64.3967C67.5168 64.5198 67.7043 64.7834 67.7863 64.8888C67.8683 64.9943 68.1905 65.545 68.2784 65.6446C68.3663 65.7442 68.4542 65.6914 68.3721 65.7969C68.2901 65.9023 68.0148 66.2128 68.0382 66.4003C68.0617 66.5877 68.2491 67.0506 68.255 67.1794C68.2608 67.3142 68.2726 68.0582 68.6533 68.2398C69.0341 68.4214 69.6375 68.4097 69.8602 68.3277C70.0828 68.2456 70.03 68.1343 70.03 68.105C70.03 68.0758 69.5614 67.8707 69.5614 67.8707C69.5614 67.8707 69.9597 67.9644 70.0593 67.9937C70.0593 67.9937 70.1824 67.9586 70.2292 67.9117C70.2819 67.8649 70.2995 67.8824 70.3522 67.777C70.405 67.6715 70.5456 67.3786 70.5631 67.3142C70.5807 67.2439 70.5983 67.156 70.5983 67.156C70.5983 67.156 70.2058 67.0213 70.2702 66.9451C70.3347 66.8689 70.3288 66.8338 70.3288 66.8338C70.3288 66.8338 69.7137 66.8865 69.4149 66.6346C69.1161 66.3827 68.6533 65.8672 68.5713 65.6621C68.501 65.4805 68.1261 64.7014 68.0031 64.4846C68.1144 64.6779 68.5186 65.3575 68.5772 65.4747C68.6475 65.6094 68.7998 65.9199 69.0107 66.1191C69.2216 66.3183 69.6141 66.7049 69.9539 66.7576C70.2878 66.8104 70.3991 66.7342 70.4284 66.8397C70.4577 66.9451 70.3522 66.9744 70.4108 67.0037C70.4694 67.033 71.0084 67.3259 71.0084 67.3259C71.0084 67.3259 71.1314 66.9978 71.395 67.0037C71.6586 67.0095 72.2562 67.1501 72.5433 66.9275C72.5433 66.9275 72.4612 67.1091 72.1156 67.115C71.77 67.1208 71.477 67.0095 71.2837 67.1267C71.0904 67.2439 71.0142 67.3903 71.0611 67.5309C71.108 67.6657 71.8403 68.1753 72.0863 68.2984C72.3324 68.4214 73.258 68.7026 73.2931 68.7026C73.3283 68.7026 73.2931 68.7143 73.2931 68.7143C73.2931 68.7143 72.4612 68.644 72.262 68.5444C72.262 68.5444 72.9358 69.8625 74.002 69.4114C74.002 69.4114 74.125 69.4817 74.207 69.5052C74.289 69.5286 75.0389 69.7571 75.0389 69.7571C75.0389 69.7571 75.2732 69.9094 75.3025 69.8801C75.3318 69.8508 75.7829 68.5679 75.7829 68.5679C75.7829 68.5679 75.9645 68.5444 76.0055 68.5561C76.0465 68.5678 76.1871 68.5854 76.2105 68.5561C76.234 68.5268 76.1109 68.3921 76.0817 68.3511C76.0524 68.3101 75.9059 68.2632 75.9411 68.1871C75.9762 68.1109 76.275 67.2966 76.275 67.2966C76.275 67.2966 76.3804 67.2966 76.603 67.2556C76.603 67.2556 77.3529 68.1343 77.9212 68.3804C77.9212 68.3804 77.8919 68.5386 77.9212 68.5561C77.9505 68.5737 78.0208 68.6264 77.9505 68.6323H77.8802C77.8802 68.6323 77.7981 68.5737 77.7688 68.6323C77.7396 68.6909 77.7571 68.8549 77.7571 68.8549C77.7571 68.8549 76.8667 68.6909 76.2984 69.2123C75.7302 69.7337 75.613 70.2609 75.6189 70.6593C75.6247 71.0576 75.9586 71.9774 77.0659 72.0887C78.1731 72.2 78.8995 70.999 78.8526 70.3488C78.8058 69.6985 78.5011 69.3587 78.5011 69.3587C78.5011 69.3587 78.5421 69.0365 78.5129 68.8901C78.4836 68.7495 78.3254 68.6089 78.3254 68.6089C78.3254 68.6089 78.4015 68.5679 78.5363 68.6089C78.671 68.6499 79.6376 68.8783 80.2586 68.5796C80.2586 68.5796 80.2703 69.0892 80.4695 69.306C80.6687 69.5228 80.985 69.7278 81.1784 69.7629C81.1784 69.7629 81.6939 70.9815 83.4221 71.5029C85.1503 72.0242 87.3765 70.6183 88.2962 68.2632C89.216 65.9082 88.636 64.3616 88.0443 63.5356L88.0619 63.518ZM72.7424 64.8888C72.719 65.0412 72.5433 65.4102 72.5257 65.4278C72.5022 65.4512 72.4026 65.4512 72.4026 65.4512C72.4026 65.4512 72.3324 65.1525 72.3031 65.0704C72.2738 64.9884 72.7073 64.2679 72.7659 64.1624C72.7659 64.1624 72.7659 64.7365 72.7483 64.8888H72.7424ZM76.2926 66.2597L75.9469 67.2263C75.9469 67.2263 75.8415 67.1033 75.777 67.1033C75.7126 67.1033 75.6774 67.115 75.7009 67.2263C75.7243 67.3376 75.8942 67.4138 75.859 67.5192C75.8239 67.6247 75.7946 67.7301 75.7712 67.6715C75.7477 67.6129 75.7712 67.4255 75.7243 67.3845C75.6833 67.3435 75.5896 67.3786 75.6013 67.2497C75.613 67.1209 75.6657 66.5702 75.7184 66.453C75.777 66.33 75.7887 66.1015 75.7887 66.1015H75.859C75.859 66.1015 75.9645 65.6856 76.0114 65.5918C76.0582 65.4981 76.1578 65.2169 76.1578 65.2169C76.1578 65.2169 76.152 65.7383 76.2926 66.2362C76.4332 66.7342 76.2926 66.2655 76.2926 66.2655V66.2597ZM78.8819 64.9357C78.8995 64.8947 78.9288 64.76 78.9288 64.76L79.169 64.7834L78.8819 65.0001C78.8819 65.0001 78.8643 64.9826 78.8819 64.9357ZM77.3588 66.1542C77.3588 66.1542 77.2475 66.1718 77.142 66.1367C77.0366 66.1074 76.9897 66.2714 76.9838 66.248C76.978 66.2245 76.896 65.9726 76.8725 65.8789C76.8491 65.7852 76.8081 65.8027 76.9604 65.5625C77.1127 65.3224 77.4584 65.2521 77.4584 65.2521L77.3529 66.1542H77.3588ZM76.8081 65.2521C76.8081 65.2521 76.7612 64.2561 77.0131 63.7992C77.0131 63.7992 77.4232 64.057 77.5521 64.0804L77.4642 64.9123C77.4642 64.9123 76.9428 64.9943 76.8139 65.2521H76.8081ZM78.0383 67.1794C78.0383 67.1794 77.6224 67.1912 77.5638 67.1853C77.5052 67.1853 77.5287 67.1267 77.5287 67.0916C77.5287 67.0623 77.5755 67.033 77.6282 67.0037C77.681 66.9744 77.7103 66.9978 77.7278 67.0095C77.7454 67.0213 77.8333 67.0095 77.8626 66.9861C77.8919 66.9685 77.9329 66.9334 77.9329 66.8807L78.0735 66.8689L78.0442 67.1736L78.0383 67.1794ZM77.9563 66.4413C77.9563 66.4413 77.9739 66.289 78.0676 66.289V66.453L77.9563 66.4354V66.4413ZM78.1028 65.5625L77.6517 65.8906V65.8789L77.7396 65.2345C77.7396 65.2345 77.8274 65.2462 77.845 65.2579C77.8626 65.2696 77.9094 65.2813 77.9329 65.3106C77.9563 65.3458 78.0559 65.3809 78.1028 65.3809C78.1438 65.3809 78.1028 65.5684 78.1028 65.5684V65.5625ZM78.2902 64.7775C78.1672 64.7951 78.0559 64.8478 77.9563 64.8478C77.8567 64.8478 77.7454 64.8537 77.7454 64.8537L77.804 64.139C77.804 64.139 78.425 64.18 78.5539 64.1507L78.4953 64.801C78.4953 64.801 78.4074 64.76 78.2902 64.7775ZM79.497 67.8824C79.4678 67.9937 79.4912 68.0758 79.374 68.0758C79.2569 68.0758 78.507 67.9527 78.4425 67.8941C78.3781 67.8356 78.425 67.6832 78.425 67.6832C78.4953 67.7184 78.6593 67.7301 78.7765 67.6832C78.8936 67.6364 78.8585 67.4899 78.8585 67.4899L79.5498 67.4372C79.5498 67.4372 79.5381 67.777 79.5088 67.8824H79.497ZM79.5322 67.1267C79.5322 67.1267 78.8233 67.2204 78.8233 67.1619C78.8233 67.1033 78.8995 67.0564 78.8995 67.0564L79.5556 67.0095L79.5322 67.1326V67.1267ZM79.4209 66.6405L79.5673 66.535L79.5791 66.6405H79.415H79.4209ZM79.6142 65.4922C79.6083 65.5977 79.5966 66.0488 79.5966 66.0488L78.8292 66.6873L78.8058 66.1249C78.8058 66.1249 78.9698 66.1191 78.9991 66.0605C79.0284 66.0019 78.9171 65.9726 78.8643 65.9316C78.8116 65.8906 78.8351 65.7852 78.8468 65.7559C78.8585 65.7266 79.5381 65.2638 79.5381 65.2638C79.5381 65.2638 79.6259 65.3927 79.6142 65.4981V65.4922ZM80.4402 65.0412C80.4402 65.0412 80.6336 65.1173 80.6218 65.2052C80.6101 65.2931 80.4402 65.3516 80.4402 65.3516V65.0412ZM80.2938 67.7184C80.2762 67.818 80.0419 67.9 80.0419 67.9L80.1004 67.4313C80.1004 67.4313 80.2352 67.3903 80.2528 67.4079C80.2703 67.4255 80.3113 67.6188 80.2938 67.7184ZM80.6218 66.6873L80.3524 66.0546C80.3524 66.0546 80.6863 66.1718 80.7039 66.2304C80.7039 66.2304 80.7039 66.2304 80.7039 66.2362C80.7097 66.3124 80.616 66.6815 80.616 66.6815L80.6218 66.6873ZM80.739 66.1191C80.739 66.1191 80.575 66.0957 80.534 66.0371C80.493 65.9785 80.8269 65.5333 80.9148 65.4864L80.739 66.1191ZM81.1432 64.8068C81.1315 64.883 80.9558 64.9709 80.9558 64.9709V64.7072C81.0085 64.6897 81.1549 64.7307 81.1432 64.801V64.8068ZM81.1432 64.3557C81.0905 64.3557 80.8737 64.3557 80.8737 64.3557C80.8737 64.3557 80.9792 64.1917 81.0495 64.1976C81.1198 64.1976 81.1842 64.2151 81.1842 64.2151C81.1842 64.2151 81.196 64.3557 81.1374 64.3616L81.1432 64.3557ZM88.0267 65.2228C88.1029 65.586 87.8685 65.6739 87.8685 65.6739L85.3612 66.3593L86.4977 63.02C87.5639 63.4711 87.9447 64.8537 88.0209 65.2169L88.0267 65.2228ZM84.9453 62.7623C85.7186 62.5162 85.9939 62.8384 85.9939 62.8384L84.6231 65.9609L84.9453 62.7623ZM84.916 67.4782L85.8533 68.8432L85.285 68.9193V69.0834L84.2188 69.224L84.916 67.4899V67.4782ZM84.0782 64.6604C84.0782 64.6604 84.0196 64.8713 84.0079 64.9709C83.9962 65.0704 83.7619 64.6604 83.7619 64.6604H84.0782ZM83.4455 65.2579L84.2364 66.535L82.5316 67.0447C83.0413 66.5819 83.4455 65.2579 83.4455 65.2579ZM82.766 64.18C82.8128 64.2093 82.8187 64.3089 82.8187 64.3089H82.6605C82.6781 64.2679 82.7718 64.18 82.7718 64.18H82.766ZM82.4203 64.6604H82.7601C82.7601 64.6604 82.5199 65.504 82.3852 65.7734C82.3852 65.7734 81.9458 65.5391 81.9575 65.545C81.9692 65.5508 82.2446 64.8361 82.4262 64.6662L82.4203 64.6604ZM81.8579 65.8789L82.2329 66.1367C82.2329 66.1367 81.7759 66.6873 81.6236 66.8397C81.6236 66.8397 81.6998 66.2187 81.8638 65.8789H81.8579ZM83.0237 70.4601C83.0237 70.4601 82.4613 70.1437 82.2797 69.8801C82.2797 69.8801 82.6371 69.8391 82.6898 69.8274C82.7425 69.8157 82.7894 69.7629 82.8128 69.6868C82.8363 69.6106 82.8011 69.6048 82.8831 69.5931C82.9652 69.5813 83.3811 69.5462 83.3811 69.5462L83.0296 70.4601H83.0237ZM82.7835 69.3353C82.7835 69.3353 82.7074 69.2181 82.5609 69.2298C82.4145 69.2416 81.9282 69.2767 81.9282 69.2767C81.9282 69.2767 81.3893 68.0875 81.6353 67.9L84.1427 67.2673L83.4631 69.2767L82.7835 69.3353ZM83.592 70.7237L84.1017 69.5228L85.3612 69.4349C85.3612 69.4349 85.4432 69.5345 85.619 69.4759C85.7947 69.4173 86.2165 69.3997 86.2165 69.3997L86.4567 69.7454C86.4567 69.7454 85.5721 70.958 83.592 70.7178V70.7237ZM86.8668 69.3353L85.3671 66.9685L88.0443 66.1542C88.0443 66.1542 88.0091 68.1402 86.8668 69.3353Z" fill="#039EA0"/>
<path d="M63.3868 62.0708C63.3751 61.9771 63.3399 61.9068 63.2813 61.8248C63.2227 61.7428 63.2462 61.6432 63.1583 61.526C63.0704 61.4088 62.9943 61.1628 62.9005 61.0105C62.8068 60.8581 62.6193 60.4246 62.3323 60.1844C62.0452 59.9443 61.641 59.8271 61.5238 59.7568C61.4067 59.6865 61.1665 59.5517 61.1841 59.458C61.2016 59.3643 61.1958 59.2881 61.1958 59.2881C61.1958 59.2881 61.3598 59.1768 61.4067 58.9073C61.4067 58.9073 61.5883 58.7843 61.6351 58.6086C61.7289 58.2688 61.9163 56.4996 60.6392 56.564C60.6627 56.3766 60.7681 56.2008 60.7681 56.2008C60.4283 56.2125 60.399 56.4996 60.399 56.4996C60.2819 56.4176 59.9714 56.4351 59.9714 56.4351C60.112 56.4761 60.194 56.5464 60.2409 56.6285C58.5244 57.0385 59.7429 59.1241 59.7429 59.1241C59.7429 59.1241 59.7839 59.1885 59.8484 59.2647C59.9128 59.3409 59.9655 59.3409 59.9538 59.4639C59.9421 59.5869 59.7722 59.7158 59.6316 59.7392C59.491 59.7626 59.1747 60.0204 59.0868 60.0849C58.9989 60.1493 58.7763 60.3016 58.6591 60.8523C58.542 61.3971 58.4072 61.5494 58.4482 61.9068C58.4892 62.27 58.4248 62.4926 58.3955 62.7972C58.3721 63.1019 58.3428 63.5295 58.3721 63.7463C58.4014 63.963 58.3779 64.3321 58.3779 64.3321C58.3779 64.3321 58.3135 64.3321 58.2959 64.4024C58.2783 64.4727 58.2608 64.2735 58.1436 64.2032C58.0264 64.1329 58.167 64.0333 58.0323 63.9455C57.8976 63.8576 57.9034 63.6057 57.9151 63.4885C57.9268 63.3714 58.0147 63.2835 57.8917 62.9261C57.7687 62.5688 57.8273 62.393 57.7745 62.27C57.7218 62.147 57.8448 62.1411 57.839 61.9829C57.839 61.8248 58.1026 61.9654 57.7745 61.7017C57.4465 61.4381 57.4523 61.4498 57.4992 61.321C57.5461 61.1921 57.6515 61.1276 57.6398 60.9519C57.6281 60.7761 57.88 60.7586 57.6398 60.3661C57.3996 59.9735 57.177 59.1007 56.2807 58.9835C55.3843 58.8663 55.15 59.3701 55.027 59.7744C54.904 60.1786 55.1559 60.5008 54.8454 60.7644C54.5349 61.028 54.6403 61.0983 54.8102 61.2741C54.9801 61.4498 55.0973 61.6197 54.5993 61.7545C54.3006 61.8716 54.3123 62.5629 54.2244 62.8441C54.1365 63.1253 54.201 63.2776 54.0779 63.3596C53.9549 63.4417 53.9373 63.758 53.7206 63.9923C53.5683 64.1622 53.5859 64.5957 53.58 64.6543C53.5741 64.7129 53.4453 64.8652 53.5214 65C53.5976 65.1347 53.7909 65.1874 53.8319 65.1874C53.8729 65.1874 53.9491 65.1581 54.0194 65.0996C54.0897 65.041 54.119 64.9531 54.1717 64.959C54.2244 64.9648 54.2596 65.0058 54.283 64.8301C54.3064 64.6543 54.2537 64.6485 54.2478 64.5723C54.242 64.4962 54.3533 64.4493 54.3826 64.3673C54.4119 64.2853 54.4236 64.2384 54.5408 64.1447C54.6579 64.0509 54.6345 63.9806 54.7048 63.922C54.7751 63.8635 54.8102 63.8459 54.7927 63.7697C54.7751 63.6936 54.8864 63.676 54.8747 63.594C54.8922 63.676 54.9508 63.9923 54.945 64.1154C54.945 64.2677 54.9977 64.4141 55.0094 64.5079C55.0211 64.6016 54.9743 64.8945 54.986 65.0293C54.9977 65.164 55.0973 65.3046 55.0504 65.6737C55.0036 66.0486 55.1793 66.529 55.0504 66.9625C54.9157 67.396 54.9508 67.935 55.0094 68.181C55.068 68.4271 55.0446 68.8196 55.2613 69.0715C55.4781 69.3234 55.9233 69.7686 56.0288 69.8682C56.0288 69.8682 56.0288 70.0791 55.9819 70.208C55.935 70.3369 55.8706 70.3955 55.9175 70.5126C55.9643 70.6356 55.8706 70.6415 55.8179 70.6767C55.7651 70.7118 55.7476 70.8114 55.7827 70.8583C55.8179 70.9051 55.8237 70.952 55.8589 70.9461C55.894 70.9403 55.9057 71.1395 55.8589 71.2098C55.812 71.2801 55.7007 71.3972 55.7886 71.4968C55.853 71.573 55.853 71.5613 55.853 71.5495C55.8647 71.5847 55.9409 71.7604 56.0932 71.696C56.0932 71.696 56.1225 71.8132 56.2572 71.7487C56.2572 71.7487 56.3217 71.7722 56.3803 71.737C56.3803 71.737 56.433 71.7604 56.5033 71.7194C56.5033 71.7194 56.6146 71.6726 56.556 71.5847C56.4974 71.4968 56.4095 71.4675 56.4095 71.2859C56.4095 71.198 56.4095 71.1629 56.4095 71.1512C56.4271 71.157 56.474 71.1805 56.4798 71.075C56.4857 70.9578 56.5091 70.8641 56.5794 70.8055C56.6556 70.7411 56.6263 70.6122 56.679 70.5243C56.7318 70.4365 56.761 70.331 56.7903 70.1904C56.8255 70.0498 56.8548 69.9092 56.9192 69.7218C56.9837 69.5343 57.0305 69.382 57.0188 69.2179C57.0071 69.0539 57.0305 68.9133 57.0774 68.7258C57.1243 68.5442 57.2121 68.1459 57.2941 67.9467C57.3762 67.7475 57.5695 67.1792 57.5871 66.8453C57.6046 66.5114 57.6749 66.2068 57.6632 66.0193C57.6632 66.0193 57.839 65.8084 57.8097 65.6912C57.7804 65.5741 57.6984 65.4862 57.6398 65.2226C57.5812 64.959 57.4758 64.707 57.464 64.6953C57.4523 64.6836 57.3 64.4083 57.341 64.3848C57.382 64.3614 57.3762 64.4493 57.4347 64.5313C57.4933 64.6133 57.6984 64.9707 57.7921 65.0644C57.8858 65.1581 58.2022 65.4745 58.2432 65.5741C58.2842 65.6737 58.3311 65.5741 58.3311 65.5741C58.3311 65.5741 58.2842 65.8201 58.4014 65.9139C58.4014 65.9139 58.4424 66.154 58.6416 66.3591C58.6416 66.3591 58.665 66.8102 58.6767 67.0035C58.6884 67.1968 58.7177 67.4312 58.6943 67.5835C58.6708 67.7358 58.665 67.9467 58.6943 68.0931C58.7236 68.2396 58.6123 68.6145 58.7119 68.9192C58.8114 69.2238 58.9228 69.5109 58.8759 69.5929C58.829 69.6749 58.7939 69.7452 58.8583 69.8799C58.9228 70.0147 58.8759 70.0205 58.9345 70.1553C58.9931 70.29 59.0516 70.3076 58.9462 70.4892C58.8407 70.6708 58.6767 70.8817 58.6298 70.9051C58.583 70.9286 58.3018 71.0984 58.3545 71.2215C58.3545 71.2215 58.3545 71.3269 58.4014 71.3562C58.4014 71.3562 58.4658 71.4499 58.5185 71.4324C58.5185 71.4324 58.6708 71.4968 58.7822 71.4324C58.7822 71.4324 58.9813 71.491 59.1337 71.3855C59.1337 71.3855 59.2274 71.4148 59.3446 71.1453C59.4617 70.8758 59.5789 70.8583 59.6199 70.7411C59.6609 70.6239 59.6609 70.3662 59.6609 70.2724C59.6609 70.1787 59.7605 70.1904 59.6316 69.9619C59.6316 69.9619 59.8015 69.71 59.7019 69.4523C59.6609 69.2707 59.7898 68.9895 59.7898 68.8137C59.7898 68.638 59.7898 68.5442 59.7722 68.4974C59.7546 68.4505 59.8425 68.3919 59.7898 68.263C59.7371 68.1341 60.0007 68.1107 59.9538 67.8647C59.9069 67.6186 59.8894 67.5542 59.9362 67.4487C59.9831 67.3433 59.9128 67.1968 59.9128 67.1148C59.9128 67.0328 59.9714 66.8453 60.0124 66.6696C60.0534 66.4938 60.03 66.1658 60.0827 66.2946C60.1354 66.4235 60.1589 66.7867 60.1471 66.9215C60.1354 67.0562 60.1354 67.2203 60.1061 67.3667C60.0768 67.5132 60.0124 67.5776 60.0358 67.7885C60.0593 67.9994 60.1413 68.0404 60.0124 68.1752C59.9187 68.2455 60.0886 68.4915 60.0944 68.5091C60.1003 68.5267 59.9772 68.5384 60.0358 68.6731C60.0944 68.8079 60.1003 68.72 60.0476 68.9074C59.9948 69.0949 60.0768 69.0949 60.0476 69.2824C60.0183 69.4698 60.0065 69.4991 59.989 69.6749C59.9714 69.8506 60.0007 69.9092 59.9772 69.9678C59.9538 70.0264 59.9011 69.9444 59.9128 70.1611C59.9245 70.3779 60.0007 70.3369 60.0007 70.3369C60.0007 70.3369 59.9362 70.4423 59.9421 70.5009C59.948 70.5595 59.989 70.6298 59.989 70.6298C59.989 70.6298 59.948 70.7528 59.9772 70.8993C60.0065 71.0457 59.8659 71.075 59.9597 71.2566C60.0534 71.4382 60.1354 71.4558 60.2116 71.532C60.2877 71.6023 60.4811 71.6667 60.5689 71.655C60.6568 71.6433 60.8736 71.6784 60.8853 71.6316C60.897 71.5847 61.0025 71.5964 61.0259 71.5671C61.0493 71.5378 61.1079 71.6023 61.1723 71.5613C61.2368 71.5202 61.3364 71.5964 61.3188 71.5144C61.3012 71.4324 61.5004 71.491 61.1665 71.2801C60.8326 71.0692 60.6217 71.1512 60.6099 70.8524C60.5982 70.5536 60.6568 70.8348 60.6275 70.5888C60.6275 70.5888 60.856 70.5712 60.8443 70.3076C60.8326 70.044 60.8911 69.9795 60.9263 69.8682C60.9614 69.7569 61.0083 69.5636 61.0493 69.3527C61.0962 69.1418 61.1958 68.8371 61.1958 68.638C61.1958 68.4388 61.2954 68.4681 61.2368 68.1869C61.1782 67.9057 61.395 67.396 61.4067 67.2437C61.4184 67.0914 61.5648 66.5231 61.6 66.2126C61.6351 65.9021 61.6762 65.4276 61.6469 65.3222C61.6176 65.2167 61.7992 65.2694 61.8226 65.0234C61.846 64.7715 61.7757 64.6543 61.7933 64.5664C61.8109 64.4786 62.0159 64.1798 62.0218 64.2384C62.0277 64.297 61.9222 64.4551 61.9046 64.4961C61.8871 64.5372 61.7992 64.5606 61.8578 64.6543C61.9163 64.7481 62.0394 64.6192 62.0687 64.5547C62.098 64.4903 62.18 64.3731 62.262 64.2735C62.344 64.1739 62.3967 64.1505 62.467 64.0685C62.5373 63.9865 62.5256 63.9045 62.6486 63.8342C62.7717 63.7639 62.7717 63.7053 62.7658 63.594C62.7599 63.4827 62.8302 63.3596 62.9181 63.2542C63.006 63.1487 63.0001 63.0609 63.1232 62.9437C63.2462 62.8265 63.2345 62.7621 63.2755 62.6098C63.3165 62.4575 63.3575 62.3051 63.3809 62.2641C63.4044 62.2231 63.4278 62.1821 63.4161 62.0884L63.3868 62.0708ZM56.2689 67.8822C56.2455 67.9701 56.1401 68.1869 56.1694 68.0931C56.1986 67.9994 56.1928 67.8002 56.1987 67.7299C56.1987 67.6655 56.2748 67.5659 56.2865 67.5483C56.31 67.6362 56.2865 67.8002 56.2631 67.8881L56.2689 67.8822ZM62.5373 62.2524C62.4729 62.4516 62.549 62.6625 62.426 62.8207C62.303 62.973 62.2796 63.055 62.2386 63.1195C62.1917 63.1839 62.098 63.2542 62.0687 63.3596C62.0394 63.4651 61.8929 63.5002 61.8578 63.5705C61.8226 63.6408 61.7172 63.6877 61.7465 63.6174C61.7757 63.5471 61.764 63.3772 61.7699 63.137C61.7757 62.8968 61.723 62.7621 61.8168 62.5395C61.9105 62.3169 61.8343 62.1997 61.846 62.1411C61.8578 62.0825 61.9456 61.7779 61.9574 61.6666C61.9574 61.6666 62.1038 61.5494 62.1448 61.526C62.1858 61.5084 62.1858 61.6432 62.3147 61.7252C62.4436 61.8072 62.549 61.8834 62.5315 62.0005C62.5139 62.1177 62.5959 62.0591 62.5315 62.2583L62.5373 62.2524Z" fill="#039EA0"/>
<path d="M96.2461 51.0457C96.2461 51.0457 95.5314 50.993 95.2327 51.5378C94.9339 52.0826 95.0628 52.6567 95.0276 52.9086C94.9925 53.1605 95.1096 53.3363 95.1975 53.4593C95.2854 53.5823 95.4728 53.6526 95.4728 53.7229C95.4728 53.7932 95.4728 53.9162 95.3088 54.0158C95.1448 54.1154 94.723 54.3205 94.3481 54.4845C93.9731 54.6485 93.7622 54.8243 93.563 55.1348C93.3639 55.4453 92.45 57.0153 92.5437 57.1266C92.6374 57.2379 92.9831 57.3375 93.1061 57.3902C93.2291 57.4429 93.1002 57.9292 93.0124 58.0815C92.9245 58.2338 92.4968 59.3469 92.4265 59.6515C92.3562 59.9561 92.1453 60.8583 91.9989 61.0751L91.8524 61.2918C91.8524 61.2918 91.4833 61.6726 91.5068 61.948L91.5244 62.2233C91.5244 62.2233 91.6884 62.7095 91.8583 62.651C92.0282 62.5924 92.2215 62.4576 92.3621 62.3522C92.5027 62.2467 92.8073 61.989 92.6784 61.8718C92.5496 61.7546 92.2684 61.6785 92.409 61.2743C92.5495 60.87 93.2057 59.9796 93.4224 59.5343C93.6392 59.0891 93.7974 58.4096 93.8442 58.1049C93.8911 57.8003 93.9438 57.6187 93.9848 57.6187C94.0258 57.6187 94.1723 57.5132 94.1723 57.4312C94.1723 57.3492 94.2192 57.3141 94.2133 57.5074C94.2074 57.7007 94.1489 58.4154 94.1137 58.6849C94.0786 58.9544 94.1079 60.1553 94.0668 60.3428C94.0258 60.5303 93.897 60.542 93.9321 60.6709C93.9673 60.7997 93.8852 61.6785 93.8735 61.9421C93.8618 62.2057 93.7564 63.4008 93.7095 63.7465C93.6626 64.0921 93.8208 65.17 93.8735 65.4454C93.9262 65.7207 94.0376 65.7793 94.1372 65.8379C94.2367 65.8965 94.2192 65.955 94.2192 66.0722C94.2192 66.1894 94.1782 67.4548 94.1957 67.736C94.2133 68.0172 94.2953 68.3804 94.4184 68.7084C94.5414 69.0306 94.7464 69.7805 94.7113 70.0617C94.6761 70.3429 94.7113 70.8467 94.6761 70.9756C94.641 71.1045 94.5531 71.3095 94.4476 71.374C94.3422 71.4384 94.7288 71.4794 95.0042 71.4736C95.2795 71.4677 95.4494 71.3622 95.4143 71.1982C95.3791 71.0342 95.4846 70.8584 95.4787 70.6768C95.4728 70.4952 95.2619 69.7629 95.2971 69.3763C95.3322 68.9838 95.4025 67.736 95.4143 67.4782C95.426 67.2204 95.3791 66.4999 95.3674 66.3827C95.3557 66.2655 95.5256 66.1249 95.5607 66.1015C95.5959 66.0781 95.7013 65.8965 95.7833 65.8203C95.8654 65.7441 96.1583 65.6563 96.2637 65.6563C96.3692 65.6563 96.5215 65.791 96.5215 65.8906C96.5215 65.9902 96.5859 66.1835 96.5859 66.3241C96.5859 66.4647 96.5508 67.3786 96.5859 67.6422C96.6211 67.9058 96.6445 68.7553 96.5859 68.8608C96.5273 68.9662 96.4395 69.1947 96.4512 69.3528C96.4629 69.511 96.498 69.9855 96.4688 70.1847C96.4395 70.3839 96.4805 70.6592 96.6211 70.7003C96.7617 70.7413 97.3241 70.7354 97.3416 70.5655C97.3592 70.3956 97.2831 70.1847 97.2186 70.009C97.1542 69.8332 97.1249 69.1127 97.1366 68.9076C97.1483 68.7026 97.1893 68.4624 97.3475 68.1753C97.5057 67.8941 97.7049 66.7401 97.7341 66.5233C97.7634 66.3065 97.7517 65.7441 97.7341 65.6328C97.7166 65.5215 97.8689 65.4571 97.8806 65.3516C97.8923 65.2462 98.0739 63.5883 98.0974 63.2016C98.1208 62.815 97.9978 60.8876 97.9626 60.665C97.9275 60.4424 97.7283 59.6457 97.7166 59.2824C97.7049 58.9192 97.7283 58.6029 97.781 58.4564C97.8337 58.31 97.8747 57.9878 97.863 57.8764C97.8513 57.7651 97.863 57.3433 97.9919 57.5367C98.1208 57.73 98.2848 58.0053 98.32 58.3158C98.3551 58.6263 98.5133 59.4992 98.6422 59.757L98.7711 60.0206C98.7711 60.0206 99.1929 60.9755 99.2514 61.0927C99.31 61.2098 99.3335 61.6843 99.3276 61.8132C99.3217 61.9421 99.3979 62.1237 99.4448 62.3112C99.4916 62.4986 99.5795 62.6978 99.5561 62.8443C99.5326 62.9907 99.6557 63.2895 99.8021 63.1665C99.9486 63.0435 100.136 62.6217 100.124 62.4459C100.113 62.2702 100.189 61.6609 99.9896 61.4617C99.7904 61.2625 99.6791 60.8407 99.6908 60.6416C99.7025 60.4424 99.4682 59.2239 99.2807 58.6146C99.0933 58.0053 99.0171 57.5894 99.0347 57.4605C99.0523 57.3316 99.2749 57.3785 99.3686 57.3843C99.4623 57.3902 99.5385 57.2145 99.4389 57.0153C99.3393 56.8161 99.023 55.8202 98.7476 55.2578C98.4723 54.6954 97.9392 54.6134 97.6873 54.4611C97.4354 54.3087 96.8437 54.174 96.7675 53.8987C96.6914 53.6233 97.0312 53.6643 97.1014 53.5647C97.1717 53.4652 97.2479 53.2015 97.2596 52.9731C97.2713 52.7446 97.2948 51.0867 96.2637 51.075L96.2461 51.0457Z" fill="#039EA0"/>
<path d="M107.939 62.4459C107.875 62.2701 107.77 61.9655 107.728 61.8542C107.664 61.6902 107.195 60.1143 106.996 59.6983C106.797 59.2824 106.832 58.556 106.832 58.4037C106.832 58.2513 106.756 57.1324 106.633 56.9449C106.51 56.7575 106.088 56.57 105.848 56.4704C105.608 56.3708 105.385 56.2478 105.362 56.0486C105.338 55.8494 105.262 55.7381 105.198 55.6737C105.133 55.6092 104.963 55.328 104.975 55.0879C104.987 54.8477 105.063 54.5899 105.063 54.5255C105.063 54.461 105.233 53.2952 104.208 53.0902C104.208 53.0902 103.68 53.0199 103.44 53.5647C103.2 54.1095 103.341 54.1681 103.294 54.3263C103.247 54.4845 103.317 54.7715 103.352 54.8477L103.387 54.9238C103.387 54.9238 103.464 55.205 103.464 55.3046C103.464 55.4042 103.47 55.8026 103.464 55.8846C103.458 55.9666 103.464 56.0017 103.54 56.0017C103.616 56.0017 103.698 56.1658 103.587 56.2244L103.481 56.2829C103.481 56.2829 102.702 56.775 102.503 56.9039C102.304 57.0328 102.187 57.2086 102.169 57.4839C102.151 57.7592 102.064 58.8137 102.034 59.1008C102.011 59.3937 101.899 59.8155 101.7 60.0381C101.501 60.2607 100.804 61.2098 100.71 61.3328C100.617 61.4558 100.306 61.7136 100.171 61.655C100.037 61.5964 99.7143 61.819 99.5503 61.9303C99.3863 62.0358 99.2691 62.1471 99.3687 62.4517C99.4683 62.7564 99.6616 63.0903 99.9604 62.9497C100.259 62.8091 100.499 62.604 100.523 62.4283C100.546 62.2525 100.704 61.9538 100.886 61.8249C101.068 61.6902 102.081 60.7118 102.28 60.4716C102.479 60.2314 102.638 59.8272 102.626 59.5167C102.62 59.2121 102.86 58.2806 102.907 58.4447C102.954 58.6087 102.942 59.382 102.948 59.6866C102.954 59.9912 102.931 60.7235 102.655 61.1629C102.38 61.6023 101.976 62.5806 102.099 62.6216C102.222 62.6626 102.356 62.6685 102.356 62.7564V62.8384C102.356 62.8384 102.392 63.9983 102.55 64.3322C102.708 64.6662 102.989 65.7031 103.024 66.2186C103.059 66.7341 103.147 69.6047 103.147 70.1202C103.147 70.6358 103.229 71.2802 103.282 71.2626C103.335 71.245 103.417 71.5087 103.399 71.7078C103.382 71.907 103.352 72.0418 103.598 72.0418C103.844 72.0418 104.243 71.9773 104.36 71.7957C104.477 71.6141 104.711 71.6785 104.723 71.6024C104.735 71.5262 104.747 71.2919 104.911 71.2919C105.075 71.2919 105.409 71.1806 105.174 71.0576L104.94 70.9345C104.94 70.9345 105.086 70.7881 105.086 70.4893C105.086 70.1905 105.075 69.3704 105.174 68.972L105.274 68.5736C105.274 68.5736 105.473 67.8296 105.45 67.3668C105.426 66.904 105.496 66.2831 105.625 65.8378C105.754 65.3926 105.924 64.8185 106.035 64.3967C106.147 63.9749 106.211 63.1371 106.199 62.8911C106.188 62.6451 106.223 62.6275 106.346 62.6275C106.469 62.6275 106.586 62.5103 106.522 62.2877C106.457 62.0651 106.299 61.5964 106.199 61.0985C106.1 60.6005 106.065 59.9912 106.065 59.7393C106.065 59.4874 106.24 59.0949 106.24 59.341C106.24 59.587 106.405 60.2021 106.545 60.5478C106.686 60.8934 107.172 61.9303 107.272 62.0885C107.307 62.1412 107.33 62.1764 107.342 62.2057C107.342 62.2057 107.359 62.2643 107.383 62.3521C107.4 62.481 107.436 62.6978 107.471 62.8618C107.471 63.102 107.582 63.5297 107.67 63.6C107.758 63.6703 107.951 63.3891 107.992 63.2016C108.033 63.0141 108.057 62.6275 107.945 62.4283L107.939 62.4459Z" fill="#039EA0"/>
</svg>