<svg xmlns="http://www.w3.org/2000/svg" width="562.32" height="100.80" viewBox="0 0 562.32 100.80" fill="none">
<g fill="#039EA0">
<g transform="translate(0.000 83.040) scale(0.08000 -0.08000)"><path d="M337.5 -12Q267.25 -12 206.625 13.875Q146 39.75 102.625 86.375Q59.25 133 38.5 194.75L151.75 244.25Q179.25 179.5 230.125 143.375Q281 107.25 345 107.25Q381 107.25 407.375 118.625Q433.75 130 448.5 150.125Q463.25 170.25 463.25 197.5Q463.25 230.75 443.75 252.125Q424.25 273.5 384.75 285.75L241.75 331.75Q155.25 359.25 110.875 412.875Q66.5 466.5 66.5 540Q66.5 604.25 98.125 653.125Q129.75 702 186.25 729.5Q242.75 757 315.75 757Q382.75 757 438.875 733.625Q495 710.25 535.375 668.75Q575.75 627.25 595.5 570.75L483.5 521Q461.75 576.5 417.625 607.125Q373.5 637.75 316 637.75Q282 637.75 255.875 626.5Q229.75 615.25 215.5 594.375Q201.25 573.5 201.25 546Q201.25 515 221.25 491.25Q241.25 467.5 281.75 454.75L418.5 411.5Q508 383.25 552.625 332.0Q597.25 280.75 597.25 206Q597.25 142.25 564.125 93.0Q531 43.75 472.75 15.875Q414.5 -12 337.5 -12Z"/></g>
<g transform="translate(51.760 83.040) scale(0.08000 -0.08000)"><path d="M60.5 -200V543.5H184.25V435.5L171.5 463.25Q199.75 506.75 248.0 531.125Q296.25 555.5 358.5 555.5Q436 555.5 498.125 517.875Q560.25 480.25 596.625 416.125Q633 352 633 271.75Q633 192.5 597.0 127.875Q561 63.25 498.875 25.625Q436.75 -12 357.75 -12Q298.5 -12 249.0 11.25Q199.5 34.5 170.75 79L191.75 105V-200ZM343.25 108Q388.25 108 422.875 129.0Q457.5 150 477.125 187.125Q496.75 224.25 496.75 271.75Q496.75 319.5 477.125 356.125Q457.5 392.75 422.875 414.125Q388.25 435.5 343.25 435.5Q299.75 435.5 265.25 414.5Q230.75 393.5 211.25 356.375Q191.75 319.25 191.75 271.75Q191.75 224.25 211.25 187.125Q230.75 150 265.25 129.0Q299.75 108 343.25 108Z"/></g>
<g transform="translate(105.520 83.040) scale(0.08000 -0.08000)"><path d="M318.75 -12Q234.75 -12 171.625 26.0Q108.5 64 73.5 128.75Q38.5 193.5 38.5 273Q38.5 354.75 74.375 418.375Q110.25 482 171.375 518.75Q232.5 555.5 309.25 555.5Q372.5 555.5 421.375 534.75Q470.25 514 504.125 477.125Q538 440.25 555.75 392.5Q573.5 344.75 573.5 290Q573.5 275.5 572.125 260.75Q570.75 246 567.25 234.5H147.25V334.5H492.75L430.5 288Q440.25 334 426.625 370.0Q413 406 382.375 427.0Q351.75 448 309.25 448Q267.5 448 235.875 427.25Q204.25 406.5 187.75 367.125Q171.25 327.75 174.75 272Q170.5 221.5 188.125 183.375Q205.75 145.25 240.125 124.125Q274.5 103 320.25 103Q365 103 396.375 122.0Q427.75 141 446 172.5L552 121.25Q536 82.25 501.875 52.125Q467.75 22 421.125 5.0Q374.5 -12 318.75 -12Z"/></g>
<g transform="translate(154.480 83.040) scale(0.08000 -0.08000)"><path d="M322.75 -12Q241.5 -12 177.375 25.375Q113.25 62.75 75.875 127.375Q38.5 192 38.5 272.75Q38.5 353.5 75.5 417.625Q112.5 481.75 177.0 518.625Q241.5 555.5 322.75 555.5Q381 555.5 431.0 535.25Q481 515 517.25 479.25Q553.5 443.5 569.75 395.25L455.25 344.5Q439.75 386 404.375 410.75Q369 435.5 322.75 435.5Q280.25 435.5 246.75 414.625Q213.25 393.75 194.0 356.625Q174.75 319.5 174.75 271.75Q174.75 224.25 194.0 187.125Q213.25 150 246.75 129.0Q280.25 108 322.75 108Q369.75 108 404.625 132.75Q439.5 157.5 455.25 199.5L569.75 147.5Q554.25 101.75 518.0 65.5Q481.75 29.25 431.75 8.625Q381.75 -12 322.75 -12Z"/></g>
<g transform="translate(203.120 83.040) scale(0.08000 -0.08000)"><path d="M60.5 0V543.5H191.75V0ZM60.5 605V745H191.75V605Z"/></g>
<g transform="translate(223.280 83.040) scale(0.08000 -0.08000)"><path d="M226 -12Q169 -12 126.75 7.125Q84.5 26.25 61.5 61.375Q38.5 96.5 38.5 144.25Q38.5 189.25 58.75 224.5Q79 259.75 121.125 283.75Q163.25 307.75 226.75 317.75L404.5 346.75V247.25L251.5 220.5Q213 213.5 193.875 195.875Q174.75 178.25 174.75 148.75Q174.75 121 196.125 104.25Q217.5 87.5 249.75 87.5Q291.25 87.5 322.5 105.375Q353.75 123.25 371.125 153.875Q388.5 184.5 388.5 221.5V362Q388.5 397.25 361.375 420.5Q334.25 443.75 288.75 443.75Q246.5 443.75 214.375 421.125Q182.25 398.5 167.25 361.75L60.25 413.75Q76 456.75 110.375 488.5Q144.75 520.25 192.0 537.875Q239.25 555.5 294 555.5Q360.5 555.5 411.625 531.0Q462.75 506.5 491.25 463.0Q519.75 419.5 519.75 362V0H396V92.75L424.25 94.5Q402.75 60 373.625 36.25Q344.5 12.5 307.625 0.25Q270.75 -12 226 -12Z"/></g>
<g transform="translate(269.680 83.040) scale(0.08000 -0.08000)"><path d="M60.5 0V757H191.75V0Z"/></g>
<g transform="translate(304.080 83.040) scale(0.08000 -0.08000)"><path d="M422 -12Q342.25 -12 274.375 16.875Q206.5 45.75 156.125 97.625Q105.75 149.5 77.625 219.5Q49.5 289.5 49.5 372.75Q49.5 456 77.25 526.375Q105 596.75 155.375 648.375Q205.75 700 273.625 728.5Q341.5 757 422 757Q501.75 757 565.25 730.0Q628.75 703 672.875 658.625Q717 614.25 735.75 561.25L614.25 503.5Q593 560.25 543.0 596.75Q493 633.25 422 633.25Q352 633.25 298.5 600.25Q245 567.25 215.375 509.0Q185.75 450.75 185.75 372.75Q185.75 295 215.375 236.25Q245 177.5 298.5 144.625Q352 111.75 422 111.75Q493 111.75 543.0 148.125Q593 184.5 614.25 241.25L735.75 183.5Q717 130.75 672.875 86.375Q628.75 42 565.25 15.0Q501.75 -12 422 -12Z"/></g>
<g transform="translate(366.000 83.040) scale(0.08000 -0.08000)"><path d="M226 -12Q169 -12 126.75 7.125Q84.5 26.25 61.5 61.375Q38.5 96.5 38.5 144.25Q38.5 189.25 58.75 224.5Q79 259.75 121.125 283.75Q163.25 307.75 226.75 317.75L404.5 346.75V247.25L251.5 220.5Q213 213.5 193.875 195.875Q174.75 178.25 174.75 148.75Q174.75 121 196.125 104.25Q217.5 87.5 249.75 87.5Q291.25 87.5 322.5 105.375Q353.75 123.25 371.125 153.875Q388.5 184.5 388.5 221.5V362Q388.5 397.25 361.375 420.5Q334.25 443.75 288.75 443.75Q246.5 443.75 214.375 421.125Q182.25 398.5 167.25 361.75L60.25 413.75Q76 456.75 110.375 488.5Q144.75 520.25 192.0 537.875Q239.25 555.5 294 555.5Q360.5 555.5 411.625 531.0Q462.75 506.5 491.25 463.0Q519.75 419.5 519.75 362V0H396V92.75L424.25 94.5Q402.75 60 373.625 36.25Q344.5 12.5 307.625 0.25Q270.75 -12 226 -12Z"/></g>
<g transform="translate(412.400 83.040) scale(0.08000 -0.08000)"><path d="M60.5 0V543.5H184.25V423.25L174.25 440.75Q192.5 502 233.25 525.875Q274 549.75 330.5 549.75H363V433.5H316Q260.25 433.5 226.0 399.375Q191.75 365.25 191.75 303V0Z"/></g>
<g transform="translate(442.320 83.040) scale(0.08000 -0.08000)"><path d="M318.75 -12Q234.75 -12 171.625 26.0Q108.5 64 73.5 128.75Q38.5 193.5 38.5 273Q38.5 354.75 74.375 418.375Q110.25 482 171.375 518.75Q232.5 555.5 309.25 555.5Q372.5 555.5 421.375 534.75Q470.25 514 504.125 477.125Q538 440.25 555.75 392.5Q573.5 344.75 573.5 290Q573.5 275.5 572.125 260.75Q570.75 246 567.25 234.5H147.25V334.5H492.75L430.5 288Q440.25 334 426.625 370.0Q413 406 382.375 427.0Q351.75 448 309.25 448Q267.5 448 235.875 427.25Q204.25 406.5 187.75 367.125Q171.25 327.75 174.75 272Q170.5 221.5 188.125 183.375Q205.75 145.25 240.125 124.125Q274.5 103 320.25 103Q365 103 396.375 122.0Q427.75 141 446 172.5L552 121.25Q536 82.25 501.875 52.125Q467.75 22 421.125 5.0Q374.5 -12 318.75 -12Z"/></g>
<g transform="translate(491.280 83.040) scale(0.08000 -0.08000)"><path d="M60.5 0V543.5H184.25V423.25L174.25 440.75Q192.5 502 233.25 525.875Q274 549.75 330.5 549.75H363V433.5H316Q260.25 433.5 226.0 399.375Q191.75 365.25 191.75 303V0Z"/></g>
<g transform="translate(521.200 83.040) scale(0.08000 -0.08000)"><path d="M267.5 -12Q180.75 -12 116.375 29.625Q52 71.25 27.5 142L125.75 188.5Q147.25 143.25 184.625 117.25Q222 91.25 267.5 91.25Q303.5 91.25 324.5 106.875Q345.5 122.5 345.5 149.25Q345.5 165.25 337.0 175.75Q328.5 186.25 314.25 193.75Q300 201.25 282.5 206L193.5 231Q124.75 250.5 89.5 291.875Q54.25 333.25 54.25 389.25Q54.25 439.25 79.75 476.5Q105.25 513.75 150.75 534.625Q196.25 555.5 254.5 555.5Q331.5 555.5 390.75 518.5Q450 481.5 474.5 414.75L375.25 368.25Q361.25 405 328.25 426.75Q295.25 448.5 253.75 448.5Q220.75 448.5 201.625 433.75Q182.5 419 182.5 394.5Q182.5 379.5 190.5 368.75Q198.5 358 213.25 350.75Q228 343.5 246.5 338L334 312Q401.25 292.25 437.375 251.875Q473.5 211.5 473.5 153.75Q473.5 104.5 447.5 67.25Q421.5 30 375.5 9.0Q329.5 -12 267.5 -12Z"/></g>
</g>
</svg>